#N canvas 566 141 1015 602 10;
#N canvas 444 454 461 300 out 0;
#X floatatom 173 201 5 0 0 0 - - -;
#X obj 173 225 ctlout;
#X obj 182 59 inlet;
#X floatatom 227 201 5 0 0 0 - - -;
#X obj 227 225 ctlout;
#X obj 182 105 route x y;
#X connect 0 0 1 0;
#X connect 2 0 5 0;
#X connect 3 0 4 0;
#X connect 5 0 0 0;
#X connect 5 1 3 0;
#X restore 46 206 pd out;
#X obj 252 83 print tcp;
#X obj 378 53 netreceive 25565;
#X floatatom 501 83 5 0 0 0 - - -;
#N canvas 444 454 461 300 out 0;
#X floatatom 173 201 5 0 0 0 - - -;
#X obj 173 225 ctlout;
#X obj 182 59 inlet;
#X floatatom 227 201 5 0 0 0 - - -;
#X obj 227 225 ctlout;
#X obj 182 105 route x y;
#X connect 0 0 1 0;
#X connect 2 0 5 0;
#X connect 3 0 4 0;
#X connect 5 0 0 0;
#X connect 5 1 3 0;
#X restore 97 206 pd out;
#N canvas 444 454 461 300 out 0;
#X floatatom 173 201 5 0 0 0 - - -;
#X obj 173 225 ctlout;
#X obj 182 59 inlet;
#X floatatom 227 201 5 0 0 0 - - -;
#X obj 227 225 ctlout;
#X obj 182 105 route x y;
#X connect 0 0 1 0;
#X connect 2 0 5 0;
#X connect 3 0 4 0;
#X connect 5 0 0 0;
#X connect 5 1 3 0;
#X restore 189 206 pd out;
#N canvas 444 454 461 300 out 0;
#X floatatom 173 201 5 0 0 0 - - -;
#X obj 173 225 ctlout;
#X obj 182 59 inlet;
#X floatatom 227 201 5 0 0 0 - - -;
#X obj 227 225 ctlout;
#X obj 182 105 route x y;
#X connect 0 0 1 0;
#X connect 2 0 5 0;
#X connect 3 0 4 0;
#X connect 5 0 0 0;
#X connect 5 1 3 0;
#X restore 144 206 pd out;
#N canvas 444 454 461 300 out 0;
#X floatatom 173 201 5 0 0 0 - - -;
#X obj 173 225 ctlout;
#X obj 182 59 inlet;
#X floatatom 227 201 5 0 0 0 - - -;
#X obj 227 225 ctlout;
#X obj 182 105 route x y;
#X connect 0 0 1 0;
#X connect 2 0 5 0;
#X connect 3 0 4 0;
#X connect 5 0 0 0;
#X connect 5 1 3 0;
#X restore 235 206 pd out;
#N canvas 444 454 461 300 out 0;
#X floatatom 173 201 5 0 0 0 - - -;
#X obj 173 225 ctlout;
#X obj 182 59 inlet;
#X floatatom 227 201 5 0 0 0 - - -;
#X obj 227 225 ctlout;
#X obj 182 105 route x y;
#X connect 0 0 1 0;
#X connect 2 0 5 0;
#X connect 3 0 4 0;
#X connect 5 0 0 0;
#X connect 5 1 3 0;
#X restore 283 206 pd out;
#N canvas 444 454 461 300 out 0;
#X floatatom 173 201 5 0 0 0 - - -;
#X obj 173 225 ctlout;
#X obj 182 59 inlet;
#X floatatom 227 201 5 0 0 0 - - -;
#X obj 227 225 ctlout;
#X obj 182 105 route x y;
#X connect 0 0 1 0;
#X connect 2 0 5 0;
#X connect 3 0 4 0;
#X connect 5 0 0 0;
#X connect 5 1 3 0;
#X restore 384 206 pd out;
#N canvas 444 454 461 300 out 0;
#X floatatom 173 201 5 0 0 0 - - -;
#X obj 173 225 ctlout;
#X obj 182 59 inlet;
#X floatatom 227 201 5 0 0 0 - - -;
#X obj 227 225 ctlout;
#X obj 182 105 route x y;
#X connect 0 0 1 0;
#X connect 2 0 5 0;
#X connect 3 0 4 0;
#X connect 5 0 0 0;
#X connect 5 1 3 0;
#X restore 331 206 pd out;
#N canvas 444 454 461 300 out 0;
#X floatatom 173 201 5 0 0 0 - - -;
#X obj 173 225 ctlout;
#X obj 182 59 inlet;
#X floatatom 227 201 5 0 0 0 - - -;
#X obj 227 225 ctlout;
#X obj 182 105 route x y;
#X connect 0 0 1 0;
#X connect 2 0 5 0;
#X connect 3 0 4 0;
#X connect 5 0 0 0;
#X connect 5 1 3 0;
#X restore 439 206 pd out;
#N canvas 444 454 461 300 out 0;
#X floatatom 173 201 5 0 0 0 - - -;
#X obj 173 225 ctlout;
#X obj 182 59 inlet;
#X floatatom 227 201 5 0 0 0 - - -;
#X obj 227 225 ctlout;
#X obj 182 105 route x y;
#X connect 0 0 1 0;
#X connect 2 0 5 0;
#X connect 3 0 4 0;
#X connect 5 0 0 0;
#X connect 5 1 3 0;
#X restore 497 206 pd out;
#N canvas 444 454 461 300 out 0;
#X floatatom 173 201 5 0 0 0 - - -;
#X obj 173 225 ctlout;
#X obj 182 59 inlet;
#X floatatom 227 201 5 0 0 0 - - -;
#X obj 227 225 ctlout;
#X obj 182 105 route x y;
#X connect 0 0 1 0;
#X connect 2 0 5 0;
#X connect 3 0 4 0;
#X connect 5 0 0 0;
#X connect 5 1 3 0;
#X restore 612 206 pd out;
#N canvas 444 454 461 300 out 0;
#X floatatom 173 201 5 0 0 0 - - -;
#X obj 173 225 ctlout;
#X obj 182 59 inlet;
#X floatatom 227 201 5 0 0 0 - - -;
#X obj 227 225 ctlout;
#X obj 182 105 route x y;
#X connect 0 0 1 0;
#X connect 2 0 5 0;
#X connect 3 0 4 0;
#X connect 5 0 0 0;
#X connect 5 1 3 0;
#X restore 550 206 pd out;
#N canvas 444 454 461 300 out 0;
#X floatatom 173 201 5 0 0 0 - - -;
#X obj 173 225 ctlout;
#X obj 182 59 inlet;
#X floatatom 227 201 5 0 0 0 - - -;
#X obj 227 225 ctlout;
#X obj 182 105 route x y;
#X connect 0 0 1 0;
#X connect 2 0 5 0;
#X connect 3 0 4 0;
#X connect 5 0 0 0;
#X connect 5 1 3 0;
#X restore 727 206 pd out;
#N canvas 444 454 461 300 out 0;
#X floatatom 173 201 5 0 0 0 - - -;
#X obj 173 225 ctlout;
#X obj 182 59 inlet;
#X floatatom 227 201 5 0 0 0 - - -;
#X obj 227 225 ctlout;
#X obj 182 105 route x y;
#X connect 0 0 1 0;
#X connect 2 0 5 0;
#X connect 3 0 4 0;
#X connect 5 0 0 0;
#X connect 5 1 3 0;
#X restore 673 206 pd out;
#N canvas 444 454 461 300 out 0;
#X floatatom 173 201 5 0 0 0 - - -;
#X obj 173 225 ctlout;
#X obj 182 59 inlet;
#X floatatom 227 201 5 0 0 0 - - -;
#X obj 227 225 ctlout;
#X obj 182 105 route x y;
#X connect 0 0 1 0;
#X connect 2 0 5 0;
#X connect 3 0 4 0;
#X connect 5 0 0 0;
#X connect 5 1 3 0;
#X restore 837 206 pd out;
#N canvas 444 454 461 300 out 0;
#X floatatom 173 201 5 0 0 0 - - -;
#X obj 173 225 ctlout;
#X obj 182 59 inlet;
#X floatatom 227 201 5 0 0 0 - - -;
#X obj 227 225 ctlout;
#X obj 182 105 route x y;
#X connect 0 0 1 0;
#X connect 2 0 5 0;
#X connect 3 0 4 0;
#X connect 5 0 0 0;
#X connect 5 1 3 0;
#X restore 780 206 pd out;
#X obj 282 124 route 0 1 2 3 4 5 6 7 8 9 10 11 12 13 14 15;
#X connect 2 0 1 0;
#X connect 2 0 19 0;
#X connect 2 1 3 0;
#X connect 19 0 0 0;
#X connect 19 1 4 0;
#X connect 19 2 6 0;
#X connect 19 3 5 0;
#X connect 19 4 7 0;
#X connect 19 5 8 0;
#X connect 19 6 10 0;
#X connect 19 7 9 0;
#X connect 19 8 11 0;
#X connect 19 9 12 0;
#X connect 19 10 14 0;
#X connect 19 11 13 0;
#X connect 19 12 16 0;
#X connect 19 13 15 0;
#X connect 19 14 18 0;
#X connect 19 15 17 0;
