#N canvas 707 117 1015 602 10;
#N canvas 112 212 461 300 out 0;
#X floatatom 173 201 5 0 0 0 - - -;
#X obj 182 59 inlet;
#X floatatom 242 201 5 0 0 0 - - -;
#X obj 182 105 route x y;
#X obj 173 225 ctlout 127;
#X obj 242 226 ctlout 126;
#X connect 0 0 4 0;
#X connect 1 0 3 0;
#X connect 2 0 5 0;
#X connect 3 0 0 0;
#X connect 3 1 2 0;
#X restore 46 206 pd out;
#X obj 252 83 print tcp;
#X obj 378 53 netreceive 25565;
#X floatatom 501 83 5 0 0 0 - - -;
#N canvas 107 612 461 300 out 0;
#X floatatom 177 199 5 0 0 0 - - -;
#X obj 182 59 inlet;
#X floatatom 227 201 5 0 0 0 - - -;
#X obj 182 105 route x y;
#X obj 148 226 ctlout 125;
#X obj 237 225 ctlout 124;
#X connect 0 0 4 0;
#X connect 1 0 3 0;
#X connect 2 0 5 0;
#X connect 3 0 0 0;
#X connect 3 1 2 0;
#X restore 97 206 pd out;
#N canvas 978 450 461 300 out 0;
#X floatatom 173 201 5 0 0 0 - - -;
#X obj 182 59 inlet;
#X floatatom 227 201 5 0 0 0 - - -;
#X obj 182 105 route x y;
#X obj 152 226 ctlout 121;
#X obj 227 225 ctlout 120;
#X connect 0 0 4 0;
#X connect 1 0 3 0;
#X connect 2 0 5 0;
#X connect 3 0 0 0;
#X connect 3 1 2 0;
#X restore 189 206 pd out;
#N canvas 444 454 461 300 out 0;
#X floatatom 173 201 5 0 0 0 - - -;
#X obj 182 59 inlet;
#X floatatom 227 201 5 0 0 0 - - -;
#X obj 182 105 route x y;
#X obj 154 225 ctlout 123;
#X obj 227 225 ctlout 122;
#X connect 0 0 4 0;
#X connect 1 0 3 0;
#X connect 2 0 5 0;
#X connect 3 0 0 0;
#X connect 3 1 2 0;
#X restore 144 206 pd out;
#N canvas 444 454 461 300 out 0;
#X floatatom 173 201 5 0 0 0 - - -;
#X obj 182 59 inlet;
#X floatatom 227 201 5 0 0 0 - - -;
#X obj 182 105 route x y;
#X obj 155 225 ctlout 119;
#X obj 227 225 ctlout 118;
#X connect 0 0 4 0;
#X connect 1 0 3 0;
#X connect 2 0 5 0;
#X connect 3 0 0 0;
#X connect 3 1 2 0;
#X restore 235 206 pd out;
#N canvas 260 208 461 300 out 0;
#X floatatom 173 201 5 0 0 0 - - -;
#X obj 182 59 inlet;
#X floatatom 227 201 5 0 0 0 - - -;
#X obj 182 105 route x y;
#X obj 163 226 ctlout 117;
#X obj 231 226 ctlout 116;
#X connect 0 0 4 0;
#X connect 1 0 3 0;
#X connect 2 0 5 0;
#X connect 3 0 0 0;
#X connect 3 1 2 0;
#X restore 283 206 pd out;
#N canvas 245 588 461 300 out 0;
#X floatatom 173 201 5 0 0 0 - - -;
#X obj 182 59 inlet;
#X floatatom 227 201 5 0 0 0 - - -;
#X obj 182 105 route x y;
#X obj 151 226 ctlout 113;
#X obj 227 225 ctlout 112;
#X connect 0 0 4 0;
#X connect 1 0 3 0;
#X connect 2 0 5 0;
#X connect 3 0 0 0;
#X connect 3 1 2 0;
#X restore 384 206 pd out;
#N canvas 861 508 461 300 out 0;
#X floatatom 173 201 5 0 0 0 - - -;
#X obj 182 59 inlet;
#X floatatom 227 201 5 0 0 0 - - -;
#X obj 182 105 route x y;
#X obj 150 227 ctlout 115;
#X obj 227 225 ctlout 114;
#X connect 0 0 4 0;
#X connect 1 0 3 0;
#X connect 2 0 5 0;
#X connect 3 0 0 0;
#X connect 3 1 2 0;
#X restore 331 206 pd out;
#N canvas 905 165 461 300 out 0;
#X floatatom 173 201 5 0 0 0 - - -;
#X obj 182 59 inlet;
#X floatatom 227 201 5 0 0 0 - - -;
#X obj 182 105 route x y;
#X obj 156 225 ctlout 111;
#X obj 227 225 ctlout 110;
#X connect 0 0 4 0;
#X connect 1 0 3 0;
#X connect 2 0 5 0;
#X connect 3 0 0 0;
#X connect 3 1 2 0;
#X restore 439 206 pd out;
#N canvas 1266 67 461 300 out 0;
#X floatatom 173 201 5 0 0 0 - - -;
#X obj 182 59 inlet;
#X floatatom 227 201 5 0 0 0 - - -;
#X obj 182 86 route x y;
#X obj 173 227 ctlout 109;
#X obj 242 227 ctlout 108;
#X connect 0 0 4 0;
#X connect 1 0 3 0;
#X connect 2 0 5 0;
#X connect 3 0 0 0;
#X connect 3 1 2 0;
#X restore 497 206 pd out;
#N canvas 789 413 461 300 out 0;
#X floatatom 173 201 5 0 0 0 - - -;
#X obj 182 59 inlet;
#X floatatom 227 201 5 0 0 0 - - -;
#X obj 182 105 route x y;
#X obj 154 225 ctlout 106;
#X obj 227 225 ctlout 105;
#X connect 0 0 4 0;
#X connect 1 0 3 0;
#X connect 2 0 5 0;
#X connect 3 0 0 0;
#X connect 3 1 2 0;
#X restore 612 206 pd out;
#N canvas 444 454 461 300 out 0;
#X floatatom 173 201 5 0 0 0 - - -;
#X obj 182 59 inlet;
#X floatatom 227 201 5 0 0 0 - - -;
#X obj 182 105 route x y;
#X obj 158 226 ctlout 107;
#X obj 227 225 ctlout 106;
#X connect 0 0 4 0;
#X connect 1 0 3 0;
#X connect 2 0 5 0;
#X connect 3 0 0 0;
#X connect 3 1 2 0;
#X restore 550 206 pd out;
#N canvas 884 433 461 300 out 0;
#X floatatom 173 201 5 0 0 0 - - -;
#X obj 182 59 inlet;
#X floatatom 227 201 5 0 0 0 - - -;
#X obj 182 105 route x y;
#X obj 147 225 ctlout 102;
#X obj 227 225 ctlout 101;
#X connect 0 0 4 0;
#X connect 1 0 3 0;
#X connect 2 0 5 0;
#X connect 3 0 0 0;
#X connect 3 1 2 0;
#X restore 727 206 pd out;
#N canvas 308 544 461 300 out 0;
#X floatatom 173 201 5 0 0 0 - - -;
#X obj 182 59 inlet;
#X floatatom 227 201 5 0 0 0 - - -;
#X obj 182 105 route x y;
#X obj 154 226 ctlout 104;
#X obj 227 225 ctlout 103;
#X connect 0 0 4 0;
#X connect 1 0 3 0;
#X connect 2 0 5 0;
#X connect 3 0 0 0;
#X connect 3 1 2 0;
#X restore 673 206 pd out;
#N canvas 977 442 461 300 out 0;
#X floatatom 173 201 5 0 0 0 - - -;
#X obj 182 59 inlet;
#X floatatom 227 201 5 0 0 0 - - -;
#X obj 182 105 route x y;
#X obj 154 225 ctlout 98;
#X obj 227 225 ctlout 97;
#X connect 0 0 4 0;
#X connect 1 0 3 0;
#X connect 2 0 5 0;
#X connect 3 0 0 0;
#X connect 3 1 2 0;
#X restore 837 206 pd out;
#N canvas 444 454 461 300 out 0;
#X floatatom 173 201 5 0 0 0 - - -;
#X obj 182 59 inlet;
#X floatatom 227 201 5 0 0 0 - - -;
#X obj 182 105 route x y;
#X obj 157 225 ctlout 100;
#X obj 227 225 ctlout 99;
#X connect 0 0 4 0;
#X connect 1 0 3 0;
#X connect 2 0 5 0;
#X connect 3 0 0 0;
#X connect 3 1 2 0;
#X restore 780 206 pd out;
#X obj 282 124 route 0 1 2 3 4 5 6 7 8 9 10 11 12 13 14 15;
#X connect 2 0 1 0;
#X connect 2 0 19 0;
#X connect 2 1 3 0;
#X connect 19 0 0 0;
#X connect 19 1 4 0;
#X connect 19 2 6 0;
#X connect 19 3 5 0;
#X connect 19 4 7 0;
#X connect 19 5 8 0;
#X connect 19 6 10 0;
#X connect 19 7 9 0;
#X connect 19 8 11 0;
#X connect 19 9 12 0;
#X connect 19 10 14 0;
#X connect 19 11 13 0;
#X connect 19 12 16 0;
#X connect 19 13 15 0;
#X connect 19 14 18 0;
#X connect 19 15 17 0;
